<svg width="76" height="76" viewBox="0 0 76 76" fill="none" xmlns="http://www.w3.org/2000/svg">
<g clip-path="url(#clip0_51_1510)">
<g opacity="0.3">
<path d="M60.8317 38.1267L55.9867 37.7783L55.0367 33.0283C54.263 29.0778 52.1409 25.5188 49.0332 22.9599C45.9256 20.4011 42.0256 19.0013 38 19C31.4767 19 25.5867 22.61 22.5467 28.3733L20.9633 31.3817L17.575 31.73C14.4764 32.0738 11.6143 33.551 9.53913 35.8775C7.46392 38.2041 6.32213 41.2158 6.33333 44.3333C6.33333 51.3317 12.0017 57 19 57H60.1667C65.3917 57 69.6667 52.725 69.6667 47.5C69.6667 42.5917 65.8033 38.4433 60.8317 38.1267ZM42.5917 41.1667V50.6667H33.3767V41.1667H25.3333L38 28.5L50.6667 41.1667H42.5917Z" fill="#CCCCCC"/>
<path d="M60.8317 38.1267L55.9867 37.7783L55.0367 33.0283C54.263 29.0778 52.1409 25.5188 49.0332 22.9599C45.9256 20.4011 42.0256 19.0013 38 19C31.4767 19 25.5867 22.61 22.5467 28.3733L20.9633 31.3817L17.575 31.73C14.4764 32.0738 11.6143 33.551 9.53913 35.8775C7.46392 38.2041 6.32213 41.2158 6.33333 44.3333C6.33333 51.3317 12.0017 57 19 57H60.1667C65.3917 57 69.6667 52.725 69.6667 47.5C69.6667 42.5917 65.8033 38.4433 60.8317 38.1267ZM42.5917 41.1667V50.6667H33.3767V41.1667H25.3333L38 28.5L50.6667 41.1667H42.5917Z" stroke="#cecece"/>
</g>
<path d="M17.5552 31.2646L17.5555 31.2646L20.6773 30.9437L22.1336 28.1769C22.134 28.1761 22.1343 28.1754 22.1347 28.1747C23.633 25.2589 25.9067 22.813 28.7056 21.1061C31.5051 19.3988 34.7214 18.4971 38.0005 18.5003M17.5552 31.2646L55.5586 32.9306C53.897 24.5593 46.5359 18.5006 38.0005 18.5003M17.5552 31.2646C10.8692 31.9563 5.83333 37.5886 5.83333 44.3337C5.83333 51.6081 11.7255 57.5003 19 57.5003H60.1667C65.6678 57.5003 70.1667 53.0015 70.1667 47.5003L70.1667 47.4981C70.1555 44.9858 69.1931 42.5711 67.4732 40.7398C65.7535 38.9088 63.4042 37.797 60.898 37.6282C60.8976 37.6282 60.8973 37.6281 60.8969 37.6281L56.434 37.3073L55.5588 32.9313L17.5552 31.2646ZM38.0005 18.5003L38 19.0003M38.0005 18.5003C38.0003 18.5003 38.0002 18.5003 38 18.5003V19.0003M38 19.0003C34.813 18.9972 31.6869 19.8736 28.9659 21.533C26.2449 23.1924 24.0346 25.5705 22.5783 28.4053M38 19.0003L22.5783 28.4053M22.5783 28.4053L20.995 31.4137L22.5783 28.4053ZM60.7845 31.8905L60.8586 32.266L61.2405 32.2925C69.2168 32.8447 75.5 39.4081 75.5 47.5003C75.5 55.9642 68.6305 62.8337 60.1667 62.8337H19C8.79447 62.8337 0.499999 54.5392 0.499999 44.3337V44.3336C0.49947 39.7756 2.18336 35.3781 5.22813 31.9862C8.27289 28.5943 12.4637 26.4472 16.9954 25.9574L17.2615 25.9287L17.3851 25.6913C21.2609 18.2498 29.0423 13.167 38 13.167H38.0001C43.3788 13.1658 48.591 15.032 52.7466 18.4469C56.9021 21.8618 59.7432 26.6135 60.7845 31.8905ZM33.9083 41.167V40.667H33.4083H26.5404L38 29.2074L49.4596 40.667H42.5917H42.0917V41.167V50.167H33.9083V41.167Z" stroke="#cecece"/>
</g>
<defs>
<clipPath id="clip0_51_1510">
<rect width="76" height="76" fill="white"/>
</clipPath>
</defs>
</svg>
