<?xml version="1.0" encoding="UTF-8"?>
<svg id="Calque_2" data-name="Calque 2" xmlns="http://www.w3.org/2000/svg" viewBox="0 0 74 83.48">
  <g id="Calque_1-2" data-name="Calque 1">
    <path d="M73.97,34.73c-.02-2.95-2.03-4.84-4.99-4.87-.51-.01-1.03,0-1.68,0v-.89c0-2.71-.02-5.43,.01-8.15,.01-.95-.27-1.71-.91-2.43-5.08-5.77-10.15-11.56-15.2-17.35C50.59,.33,49.92,0,48.95,0,36.16,.02,23.36,.01,10.56,.01,7.98,.01,6.7,1.28,6.7,3.87V29.86c-.61,0-1.15-.01-1.68,0-2.96,.03-4.97,1.92-4.99,4.87C-.01,42.72-.01,50.71,.03,58.69c.02,2.92,1.99,4.81,4.91,4.88,.54,.01,1.08,0,1.76,0v.97c0,4.89,.05,9.78-.02,14.67-.03,2.04,.59,3.54,2.6,4.27h55.44c2.01-.73,2.63-2.23,2.6-4.27-.07-4.86-.02-9.73-.02-14.59v-1.05h1.68c2.97-.05,4.97-1.92,4.99-4.88,.04-7.98,.04-15.97,0-23.96Zm-10.01,44.55c-.31,.02-.6,.04-.88,.04-17.39,.01-34.78,0-52.16,.02-.73,0-.97-.17-.96-.94,.03-4.64,0-9.29,.02-13.93,0-.27,.02-.53,.03-.88H63.96v15.69Zm-28.36-39.24c-2.89,5.81-5.68,11.66-8.49,17.51-.24,.51-.51,.72-1.09,.7-1.57-.04-3.15-.01-4.87-.01,3.14-6.12,6.22-12.14,9.38-18.31h-10.39v-4.31h15.95c-.06,1.48,.24,2.94-.49,4.42Zm2.28,5.69v-2.76h11.56v1.9l-7.56,10.42h7.58v2.75h-12.14v-1.95l7.73-10.36h-7.17Zm26.1-15.94H10.02V3.34H47.92V19.53c0,1.57,.58,2.15,2.17,2.15h13.89v8.11Z"/>
  </g>
</svg>