<?xml version="1.0" encoding="UTF-8"?>
<svg id="Calque_2" data-name="Calque 2" xmlns="http://www.w3.org/2000/svg" viewBox="0 0 60.64 77.18">
  <g id="Calque_1-2" data-name="Calque 1">
    <g>
      <path d="M30.06,55.26c-1.4,0-2.53,.51-3.38,1.54-.85,1.03-1.28,2.39-1.28,4.08s.43,3.08,1.28,4.08c.85,1,1.95,1.5,3.28,1.5s2.48-.49,3.32-1.46c.84-.97,1.26-2.32,1.26-4.05s-.41-3.2-1.22-4.2c-.81-1-1.9-1.5-3.26-1.5Z"/>
      <path d="M59.45,21.94L38.7,1.19c-.77-.77-1.8-1.19-2.89-1.19H4.08C1.83,0,0,1.83,0,4.08V73.1c0,2.26,1.83,4.08,4.08,4.08H56.56c2.26,0,4.08-1.83,4.08-4.08V24.83c0-1.09-.43-2.13-1.19-2.89ZM34.63,7.75l16.61,16.6c.53,.54,.09,1.46-.66,1.36l-14.76-1.86c-.36-.05-.64-.34-.68-.69l-1.87-14.75c-.09-.75,.83-1.21,1.36-.66Zm-17.49,59.42c-1.7,1.63-3.96,2.44-6.78,2.44H4.16v-17.5h6.2c3.11,0,5.44,.71,6.99,2.13,1.55,1.42,2.33,3.55,2.33,6.4s-.85,4.9-2.54,6.53Zm19.09,.22c-1.64,1.68-3.75,2.53-6.34,2.53s-4.59-.82-6.21-2.45c-1.62-1.63-2.43-3.76-2.43-6.38,0-2.77,.82-5,2.47-6.71,1.64-1.71,3.8-2.56,6.46-2.56,2.51,0,4.56,.82,6.15,2.45,1.58,1.63,2.37,3.79,2.37,6.47s-.82,4.97-2.46,6.65Zm17.38,1.34c-1.29,.79-2.75,1.19-4.38,1.19-2.72,0-4.89-.75-6.53-2.26-1.63-1.51-2.45-3.65-2.45-6.42s.81-5.14,2.42-6.85c1.62-1.71,3.71-2.57,6.29-2.57,1.86,0,3.39,.41,4.61,1.24,1.22,.83,2.15,1.96,2.8,3.41l-3.49,1.31c-.4-.89-.91-1.53-1.53-1.92-.62-.39-1.39-.59-2.31-.59-1.35,0-2.46,.54-3.33,1.61-.87,1.07-1.31,2.44-1.31,4.1,0,1.75,.45,3.1,1.34,4.04s2.11,1.42,3.64,1.42c.85,0,1.59-.2,2.22-.59s1.13-.97,1.48-1.73l3.39,1.57c-.62,1.25-1.57,2.26-2.86,3.06Z"/>
      <path d="M10.03,55.38h-1.93v10.96h1.95c1.71,0,3.05-.51,4.02-1.52,.97-1.01,1.46-2.39,1.46-4.13,0-1.65-.48-2.95-1.45-3.89-.96-.94-2.32-1.42-4.06-1.42Z"/>
    </g>
  </g>
</svg>