<?xml version="1.0" encoding="UTF-8"?>
<svg id="Calque_2" data-name="Calque 2" xmlns="http://www.w3.org/2000/svg" viewBox="0 0 71.17 77.18">
  <defs>
    <style>
      .cls-1 {
        fill: #1f7244;
      }
    </style>
  </defs>
  <g id="Calque_1-2" data-name="Calque 1">
    <g id="ExCEL">
      <path class="cls-1" d="M69.98,21.94L49.23,1.19c-.77-.77-1.8-1.19-2.89-1.19H14.61c-2.25,0-4.08,1.83-4.08,4.08V24.24h23.49c6.39,0,11.58,5.2,11.58,11.59v24.43c0,6.39-5.19,11.59-11.58,11.59H10.53v1.25c0,2.26,1.83,4.08,4.08,4.08h52.48c2.26,0,4.08-1.83,4.08-4.08V24.83c0-1.09-.43-2.13-1.19-2.89Zm-8.87,3.77l-14.76-1.86c-.36-.05-.64-.34-.68-.69l-1.87-14.75c-.09-.75,.83-1.21,1.36-.66l16.61,16.6c.53,.54,.09,1.46-.66,1.36Z"/>
      <path class="cls-1" d="M15.55,47.89c-.03-.07-.03-.12,0-.19,.91-1.72,1.8-3.43,2.7-5.14,.02-.03,.03-.06,.05-.1h-.18c-.3,.02-.59,.05-.89,.07-.4,.02-.81,.06-1.21,.08-.07,0-.1,.03-.13,.09-.31,.7-.63,1.4-.95,2.1-.27,.59-.54,1.17-.69,1.81l-.02,.02c-.07-.23-.12-.46-.21-.67-.41-1.02-.83-2.04-1.24-3.06-.02-.05-.05-.06-.1-.06-.57,.04-1.13,.08-1.7,.12-.15,.01-.29,.02-.45,.03h-.01s.01,.02,.01,.03c.02,.03,.02,.05,.03,.07,.75,1.54,1.51,3.08,2.26,4.62,.05,.1,.05,.16,0,.26-.77,1.43-1.53,2.85-2.29,4.28-.05,.09-.1,.19-.15,.28-.03,.04-.05,.09-.07,.14,.03,0,.05,.01,.08,.01,.05,0,.09,0,.14,.01,.14,.01,.3,.01,.45,.03,.47,.03,.94,.06,1.4,.1,.07,0,.11-.02,.14-.08,.35-.79,.72-1.57,1.08-2.35,.16-.36,.35-.71,.45-1.09,.03-.12,.06-.22,.09-.33h.01s.02,.06,.03,.09c.05,.2,.08,.4,.16,.57,.49,1.12,.99,2.24,1.49,3.35,.02,.06,.05,.08,.11,.08,.38,.03,.76,.05,1.14,.08,.3,.02,.6,.04,.89,.06,.14,.01,.27,.02,.42,.03-.03-.06-.05-.1-.07-.14-.92-1.73-1.84-3.47-2.77-5.2Z"/>
      <path class="cls-1" d="M36.5,37.14h-12.56v1.96h4.38v2.75h-4.38v.91q0,.12,.12,.12h4.27v2.76h-4.38v1.1h4.38v2.75h-4.39v1.04h4.4v2.75h-4.4v.96h4.37v2.76h-4.37v1.94h12.56v-21.8Zm-7.03,1.96h5v2.75h-5v-2.75Zm0,3.79h5v2.74h-5v-2.74Zm5,14.1h-5v-2.75h5v2.75Zm0-3.72h-5v-2.73h5v2.73Zm0-3.78h-5v-2.74h5v2.74Z"/>
      <path class="cls-1" d="M43.6,60.26v-24.43c0-5.3-4.29-9.59-9.58-9.59H9.58c-5.29,0-9.58,4.29-9.58,9.59v24.43c0,5.3,4.29,9.59,9.58,9.59h24.44c5.29,0,9.58-4.29,9.58-9.59Zm-19.66,2.97c-.17-.03-.34-.06-.5-.09-1.14-.21-2.29-.43-3.44-.65-1.18-.22-2.35-.44-3.52-.66-1.18-.23-2.36-.45-3.54-.67-.81-.15-1.61-.3-2.41-.46-.3-.05-.61-.11-.91-.17-1.23-.23-2.47-.46-3.7-.69-.09-.02-.09-.06-.09-.12v-23.45c1.57-.29,3.13-.59,4.7-.88,4.46-.84,8.93-1.69,13.41-2.53v3.05h12.23c.37,0,.71,.07,1,.3,.39,.29,.58,.68,.6,1.16v21.28c0,.52-.2,.94-.62,1.25-.27,.2-.57,.28-.89,.28h-12.32v3.05Z"/>
    </g>
  </g>
</svg>