<?xml version="1.0" encoding="UTF-8"?>
<svg id="Calque_2" data-name="Calque 2" xmlns="http://www.w3.org/2000/svg" viewBox="0 0 84.52 59.48">
  <g id="Calque_3_-_copie" data-name="Calque 3 - copie">
    <g>
      <path d="M79.06,0H5.46C2.44,0,0,2.44,0,5.45V54.02c0,3.01,2.44,5.46,5.46,5.46H79.06c3.02,0,5.46-2.45,5.46-5.46V5.45c0-3.01-2.44-5.45-5.46-5.45ZM30.09,53.84c.22,3.81-4.7,5.06-7.13,2.53l1.58-1.74c.58,.77,1.85,1.03,2.51,.31,.24-.26,.36-.67,.36-1.22v-8.16h2.68v8.28Zm9.83-1.35c-1.05,1-3.08,1.18-4.71,1.1v3.88h-2.68v-11.91c1.98,.09,6.12-.43,7.53,.98,1.64,1.25,1.52,4.71-.14,5.95Zm10.02,4.98h-7.14v-11.91h6.87v2.23h-4.18v2.59h3.89v2.21h-3.89v2.65h4.45v2.23Zm4.77-3.07c.92,1.06,2.82,1.31,4.06,.58v-1.94h-2.38v-2.22h5.07v5.45c-2.39,1.9-6.82,1.88-8.85-.18-2.29-2.03-2.17-6.85,.01-8.96,2.23-2.54,7.37-2.39,8.94,.72l-2.16,1.08c-.95-1.71-3.49-1.65-4.68-.27-1.25,1.21-1.23,4.53-.01,5.74Zm22.81-17.38c0,3.01-2.44,5.46-5.46,5.46H12.46c-3.02,0-5.46-2.45-5.46-5.46V10.19c0-3.01,2.44-5.45,5.46-5.45h59.6c3.02,0,5.46,2.44,5.46,5.45v26.83Z"/>
      <path d="M36.37,47.62h-1.16v3.91c.82,0,2.13,.1,2.66-.52,1.12-1.25,.48-3.55-1.5-3.39Z"/>
      <path d="M53.23,13.31c-1.07-1.07-2.81-1.07-3.88,0l-11.36,11.36c-1.07,1.07-2.81,1.07-3.88,0l-5.16-5.16c-1.07-1.07-2.81-1.07-3.87,0l-10.53,10.52c-1.72,1.72-.5,4.67,1.94,4.67h51.52c2.44,0,3.66-2.94,1.94-4.67L53.23,13.31Z"/>
    </g>
  </g>
</svg>