<?xml version="1.0" encoding="UTF-8"?>
<svg id="Calque_2" data-name="Calque 2" xmlns="http://www.w3.org/2000/svg" viewBox="0 0 39.66 50.48">
  <g id="Calque_2-2" data-name="Calque 2">
    <g>
      <path d="M8.91,36.17h-1.16v3.91h1.12c.66,0,1.18-.17,1.54-.52s.54-.85,.54-1.5c0-.6-.18-1.07-.53-1.39-.35-.33-.85-.49-1.51-.49Z"/>
      <path d="M19.34,36.33h-1.31v7.45h1.33c1.16,0,2.07-.34,2.73-1.03,.66-.69,.99-1.63,.99-2.81,0-1.12-.33-2.01-.98-2.65-.66-.64-1.58-.96-2.76-.96Z"/>
      <path d="M38.88,14.35L25.31,.78c-.5-.5-1.18-.78-1.89-.78H2.67C1.2,0,0,1.2,0,2.67V47.81c0,1.48,1.2,2.67,2.67,2.67H36.99c1.48,0,2.67-1.2,2.67-2.67V16.24c0-.71-.28-1.39-.78-1.89ZM22.64,5.06l10.87,10.87c.35,.35,.06,.95-.43,.89l-9.65-1.22c-.24-.03-.42-.22-.45-.45l-1.22-9.65c-.06-.49,.54-.79,.89-.43ZM12.46,41.03c-.87,.74-2.04,1.1-3.51,1.1h-1.2v3.88h-2.68v-11.9h4.14c1.48,0,2.61,.32,3.39,.97,.78,.65,1.17,1.6,1.17,2.87s-.44,2.34-1.31,3.08Zm11.71,3.32c-1.15,1.11-2.69,1.66-4.61,1.66h-4.22v-11.9h4.22c2.11,0,3.7,.48,4.76,1.45,1.06,.97,1.58,2.42,1.58,4.35s-.58,3.33-1.73,4.44Zm10.42-8.02h-4.2v2.86h3.86v2.21h-3.86v4.61h-2.68v-11.9h6.88v2.22Z"/>
    </g>
  </g>
</svg>