<?xml version="1.0" encoding="UTF-8"?>
<svg id="Calque_2" data-name="Calque 2" xmlns="http://www.w3.org/2000/svg" viewBox="0 0 84.52 59.48">
  <g id="Calque_3_-_copie_2" data-name="Calque 3 - copie 2">
    <g>
      <path d="M53.23,13.31c-1.07-1.07-2.81-1.07-3.88,0l-11.36,11.36c-1.07,1.07-2.81,1.07-3.88,0l-5.16-5.16c-1.07-1.07-2.81-1.07-3.87,0l-10.53,10.52c-1.72,1.72-.5,4.67,1.94,4.67h51.52c2.44,0,3.66-2.94,1.94-4.67L53.23,13.31Z"/>
      <path d="M29.39,47.66h-1.16v3.91h1.12c.66,0,1.18-.17,1.54-.52,.36-.35,.54-.85,.54-1.5,0-.6-.18-1.07-.53-1.39-.35-.33-.85-.49-1.51-.49Z"/>
      <path d="M79.06,0H5.46C2.44,0,0,2.44,0,5.45V54.02c0,3.01,2.44,5.46,5.46,5.46H79.06c3.02,0,5.46-2.45,5.46-5.46V5.45c0-3.01-2.44-5.45-5.46-5.45ZM32.94,52.52c-.87,.74-2.04,1.1-3.51,1.1h-1.2v3.88h-2.68v-11.9h4.14c1.48,0,2.61,.32,3.39,.97,.78,.65,1.17,1.6,1.17,2.87s-.44,2.34-1.31,3.08Zm13.59,4.98h-2.71l-4.91-7.35c-.14-.22-.25-.41-.35-.58-.09-.16-.17-.3-.22-.41h-.03c.01,.21,.02,.48,.03,.8,0,.32,0,.7,0,1.13v6.41h-2.53v-11.9h2.89l4.72,7.11c.1,.16,.2,.32,.29,.49,.1,.16,.19,.33,.27,.49h.03c-.01-.14-.02-.34-.03-.62,0-.27,0-.61,0-1.02v-6.45h2.53v11.9Zm5.58-3.07c.61,.66,1.42,1,2.41,1,.3,0,.59-.03,.88-.1,.29-.07,.55-.17,.77-.31v-1.93h-2.38v-2.22h5.06v5.45c-.57,.42-1.23,.75-1.97,1.01s-1.5,.39-2.25,.39c-1.97,0-3.51-.53-4.62-1.59-1.11-1.06-1.67-2.52-1.67-4.38s.56-3.4,1.68-4.57c1.12-1.18,2.53-1.77,4.23-1.77,1.2,0,2.18,.23,2.96,.68s1.37,1.05,1.76,1.8l-2.17,1.08c-.28-.46-.62-.79-1.01-.99s-.84-.3-1.33-.3c-.94,0-1.72,.34-2.34,1.02s-.93,1.63-.93,2.86,.31,2.22,.92,2.88Zm25.4-17.41c0,3.01-2.44,5.46-5.46,5.46H12.46c-3.02,0-5.46-2.45-5.46-5.46V10.19c0-3.01,2.44-5.45,5.46-5.45h59.6c3.02,0,5.46,2.44,5.46,5.45v26.83Z"/>
    </g>
  </g>
</svg>