<?xml version="1.0" encoding="UTF-8"?>
<svg id="Calque_2" data-name="Calque 2" xmlns="http://www.w3.org/2000/svg" viewBox="0 0 71.18 77.18">
  <defs>
    <style>
      .cls-1 {
        fill: #fff;
      }

      .cls-2 {
        fill: #d34625;
      }
    </style>
  </defs>
  <g id="Calque_1-2" data-name="Calque 1">
    <g id="powerpoint">
      <path class="cls-2" d="M69.99,21.94L49.24,1.19c-.77-.77-1.8-1.19-2.89-1.19H14.62c-2.25,0-4.08,1.83-4.08,4.08V24.24h23.49c6.39,0,11.58,5.2,11.58,11.59v24.43c0,6.39-5.19,11.59-11.58,11.59H10.54v1.25c0,2.26,1.83,4.08,4.08,4.08h52.48c2.26,0,4.08-1.83,4.08-4.08V24.83c0-1.09-.43-2.13-1.19-2.89Zm-8.87,3.77l-14.76-1.86c-.36-.05-.64-.34-.68-.69l-1.87-14.75c-.09-.75,.83-1.21,1.36-.66l16.61,16.6c.53,.54,.09,1.46-.66,1.36Z"/>
      <path class="cls-2" d="M34.02,26.24H9.58c-5.29,0-9.58,4.29-9.58,9.59v24.43c0,5.3,4.29,9.59,9.58,9.59h24.44c5.29,0,9.58-4.29,9.58-9.59v-24.43c0-5.3-4.29-9.59-9.58-9.59Zm3.75,32.41c0,.52-.2,.94-.62,1.25-.27,.2-.57,.28-.89,.28h-12.32v3.05c-.17-.03-.34-.06-.5-.09-1.14-.21-2.29-.43-3.44-.65-1.18-.22-2.35-.44-3.52-.66-1.18-.23-2.36-.45-3.54-.67-.81-.15-1.61-.3-2.41-.46-.3-.05-.61-.11-.91-.17-1.23-.23-2.47-.46-3.7-.69-.09-.02-.09-.06-.09-.12v-23.45c1.57-.29,3.13-.59,4.7-.88,4.46-.84,8.93-1.69,13.41-2.53v3.05h12.23c.37,0,.71,.07,1,.3,.39,.29,.58,.68,.6,1.16v21.28Z"/>
      <path class="cls-1" d="M16.78,48.4c-.78,.67-1.72,.76-2.7,.72-.11,0-.22-.01-.39-.02v3.97c-.7-.06-1.34-.11-2.03-.17v-10.9c1.33-.02,2.65-.13,3.96-.05,1.19,.06,1.94,.8,2.32,1.95,.52,1.61,.07,3.46-1.16,4.5Z"/>
      <path class="cls-2" d="M17.94,43.9c-.38-1.15-1.13-1.89-2.32-1.95-1.31-.08-2.63,.03-3.96,.05v10.9c.69,.06,1.33,.11,2.03,.17v-3.97c.17,0,.28,.02,.39,.02,.98,.04,1.92-.05,2.7-.72,1.23-1.04,1.68-2.89,1.16-4.5Zm-2.29,2.64c-.12,.22-.36,.44-.6,.51-.4,.13-.84,.15-1.32,.23v-3.38c.38,0,.78-.03,1.17,.01,.38,.05,.66,.27,.81,.65,.28,.67,.26,1.34-.06,1.98Z"/>
      <path class="cls-2" d="M23.94,37.14v3.29c.53-.22,1.12-.35,1.73-.35v4.71s4.73-.02,4.73-.02h0c0,2.6-2.11,4.7-4.7,4.7-.62,0-1.22-.12-1.76-.34v2.1h8.5v1.39h-8.5v1.8h8.51v1.39h-8.51v3.13h12.56v-21.8h-12.56Zm2.67,6.73v-4.71s.02,0,.02,0c2.59,0,4.69,2.09,4.7,4.69l-4.72,.02Z"/>
    </g>
  </g>
</svg>