<?xml version="1.0" encoding="UTF-8"?>
<svg id="Calque_2" data-name="Calque 2" xmlns="http://www.w3.org/2000/svg" viewBox="0 0 52.73 59.5">
  <g id="Calque_1-2" data-name="Calque 1">
    <g>
      <path d="M52.73,24.96c0-2.31-1.39-3.68-3.69-3.69-.33,0-.65,0-1.07,0v-.65c0-1.98,0-3.95,0-5.93,0-.57-.15-1.04-.54-1.48-3.63-4.13-7.25-8.27-10.88-12.4-.26-.3-.59-.54-.88-.82H6.61c-1.43,.52-1.86,1.59-1.85,3.05,.04,5.83,.01,11.66,.01,17.49v.74c-.44,0-.83,0-1.21,0-2.1,.03-3.53,1.38-3.55,3.48-.03,5.69-.03,11.39,0,17.08,.01,2.08,1.42,3.42,3.5,3.46,.39,0,.77,0,1.25,0v.7c0,3.56,0,7.13,0,10.69,0,1.92,.89,2.81,2.81,2.81H45.18c1.88,0,2.78-.9,2.78-2.77,0-3.54,0-7.09,0-10.63v-.79c.38,0,.74,0,1.1,0,2.27-.01,3.66-1.39,3.66-3.66,0-5.56,0-11.12,0-16.68ZM7.14,2.36h27.01v.65c0,3.62,0,7.24,0,10.86,0,1.17,.4,1.57,1.58,1.57,3.06,0,6.12,0,9.18,0h.68v5.79H7.14V2.36Zm26.02,39.24c-1.38,0-2.69,.01-4-.02-.12,0-.3-.25-.36-.42-.37-1.18-.73-2.36-1.07-3.55-.1-.35-.26-.49-.64-.48-1.34,.03-2.67,.03-4.01,0-.43-.01-.56,.16-.66,.53-.34,1.31-.71,2.61-1.08,3.92h-4.08c.53-1.74,1.04-3.43,1.56-5.13,1.19-3.9,2.39-7.79,3.57-11.7,.14-.46,.33-.59,.8-.58,1.51,.03,3.01,.01,4.55,.01,1.8,5.8,3.59,11.57,5.41,17.43Zm-26.28-.04H3.01V24.43c.67-.08,1.33-.21,2-.24,2.01-.1,4.02-.26,6.02,.1,1.95,.35,3.54,1.16,4.19,3.18,.76,2.39-.26,4.67-2.53,5.76-.09,.04-.17,.09-.34,.18,1.25,.57,1.82,1.57,2.16,2.71,.54,1.79,1.03,3.6,1.57,5.48-1.07,0-2.12-.05-3.17,.02-.67,.04-.98-.18-1.13-.81-.3-1.2-.64-2.39-.97-3.58-.1-.35-.21-.71-.35-1.04-.33-.79-.92-1.3-1.79-1.37-.57-.05-1.15,0-1.78,0v6.75Zm38.14,14.98c-12.43-.01-24.86,0-37.29-.01-.19,0-.37-.02-.59-.03v-11.16H45.6c.01,.2,.03,.37,.03,.54,0,3.35,0,6.7,.01,10.05,0,.49-.14,.62-.62,.62Zm-.24-14.96c-.13,0-.31-.27-.36-.45-.38-1.28-.73-2.56-1.08-3.85-.07-.24-.13-.48-.22-.72-.46-1.28-1.1-1.75-2.46-1.8-.4-.01-.8,0-1.25,0v6.82h-3.87V24.43c.57-.07,1.14-.16,1.71-.2,2.28-.16,4.56-.32,6.82,.16,2.1,.45,3.59,1.88,3.81,3.64,.31,2.5-.55,4.16-2.72,5.22-.07,.03-.13,.08-.26,.17,1.6,.77,2.04,2.27,2.46,3.76,.41,1.45,.8,2.9,1.22,4.43-1.27,0-2.53,.01-3.8-.02Z"/>
      <path d="M44.06,29.42c0,1.04-.47,1.86-1.44,2.15-1,.29-2.07,.34-3.2,.5v-4.94c1.15-.17,2.29-.3,3.39,.19,.9,.4,1.25,1.15,1.25,2.1Z"/>
      <path d="M9.94,31.63c-.95,.26-1.97,.28-3.03,.41v-4.96c.91,0,1.78-.08,2.64,.02,1.2,.14,1.87,.9,1.97,2.01,.11,1.23-.41,2.2-1.58,2.52Z"/>
      <path d="M26.98,34.15h-3.77c.61-2.31,1.2-4.58,1.82-6.93,.66,2.34,1.3,4.62,1.95,6.93Z"/>
    </g>
  </g>
</svg>