<?xml version="1.0" encoding="UTF-8"?>
<svg id="Calque_2" data-name="Calque 2" xmlns="http://www.w3.org/2000/svg" viewBox="0 0 60.64 77.18">
  <g id="Calque_1-2" data-name="Calque 1">
    <g>
      <path d="M49.59,62.74h-1.31v7.45h1.32c1.17,0,2.08-.34,2.74-1.03,.66-.69,.99-1.63,.99-2.81s-.33-2.01-.98-2.65c-.66-.64-1.58-.96-2.76-.96Z"/>
      <path d="M59.45,21.94L38.7,1.19c-.77-.77-1.8-1.19-2.89-1.19H4.08C1.83,0,0,1.83,0,4.08V73.1c0,2.26,1.83,4.08,4.08,4.08H56.56c2.26,0,4.08-1.83,4.08-4.08V24.83c0-1.09-.43-2.13-1.19-2.89ZM34.63,7.75l16.61,16.6c.53,.54,.09,1.46-.66,1.36l-14.76-1.86c-.36-.05-.64-.34-.68-.69l-1.87-14.75c-.09-.75,.83-1.21,1.36-.66Zm-11.2,56.12l-13.46-7.77c-.22-.13-.36-.37-.36-.63v-15.79l13.82,6.78v17.41Zm-12.56-25.85l13.21-7.64c.23-.13,.51-.13,.74,0l13.21,7.64-13.58,6.67-13.58-6.67Zm14.6,8.44l13.82-6.78v15.79c0,.26-.14,.5-.36,.63l-13.46,7.77v-17.41Zm17.03,25.21c-.79,.65-1.83,.97-3.12,.97-1.04,0-1.9-.18-2.59-.56-.7-.37-1.23-.9-1.62-1.6l2.01-1.18c.18,.38,.44,.69,.78,.92,.34,.24,.76,.35,1.26,.35s.93-.13,1.28-.4c.35-.27,.52-.66,.52-1.17s-.23-.94-.69-1.22c-.47-.28-1.1-.42-1.91-.43h-.97v-2.04h.89c.77,0,1.36-.13,1.74-.39,.39-.26,.58-.67,.58-1.24,0-.42-.13-.75-.41-.98-.27-.23-.61-.34-1.01-.34-.37,0-.72,.09-1.05,.28-.32,.19-.59,.49-.81,.9l-1.95-.94c.34-.64,.87-1.18,1.58-1.62,.71-.43,1.55-.65,2.52-.65,1.22,0,2.16,.28,2.82,.83,.66,.55,.99,1.31,.99,2.27,0,.65-.18,1.22-.53,1.71-.35,.48-.87,.84-1.57,1.07v.04c.75,.13,1.35,.45,1.79,.96,.44,.5,.66,1.11,.66,1.82,0,1.11-.39,1.99-1.19,2.64Zm11.92-.91c-1.15,1.1-2.69,1.66-4.61,1.66h-4.22v-11.91h4.22c2.11,0,3.7,.49,4.76,1.45,1.05,.97,1.58,2.42,1.58,4.35s-.58,3.34-1.73,4.45Z"/>
    </g>
  </g>
</svg>