<?xml version="1.0" encoding="UTF-8"?>
<svg id="Calque_2" data-name="Calque 2" xmlns="http://www.w3.org/2000/svg" viewBox="0 0 71.17 77.18">
  <defs>
    <style>
      .cls-1 {
        fill: #2a5699;
      }
    </style>
  </defs>
  <g id="Calque_1-2" data-name="Calque 1">
    <g>
      <path class="cls-1" d="M69.98,21.94L49.23,1.19c-.77-.77-1.8-1.19-2.89-1.19H14.61c-2.25,0-4.08,1.83-4.08,4.08V24.24h23.49c6.39,0,11.58,5.2,11.58,11.59v24.43c0,6.39-5.19,11.59-11.58,11.59H10.53v1.25c0,2.26,1.83,4.08,4.08,4.08h52.48c2.26,0,4.08-1.83,4.08-4.08V24.83c0-1.09-.43-2.13-1.19-2.89Zm-8.87,3.77l-14.76-1.86c-.36-.05-.64-.34-.68-.69l-1.87-14.75c-.09-.75,.83-1.21,1.36-.66l16.61,16.6c.53,.54,.09,1.46-.66,1.36Z"/>
      <path class="cls-1" d="M43.6,60.27v-24.43c0-5.3-4.29-9.59-9.58-9.59H9.58c-5.29,0-9.58,4.29-9.58,9.59v24.43c0,5.3,4.29,9.59,9.58,9.59h24.44c5.29,0,9.58-4.29,9.58-9.59Zm-19.66,2.97c-.17-.03-.34-.06-.5-.09-1.14-.21-2.29-.43-3.44-.65-1.18-.22-2.35-.44-3.52-.66-1.18-.23-2.36-.45-3.54-.67-.81-.15-1.61-.3-2.41-.46-.3-.05-.61-.11-.91-.17-1.23-.23-2.47-.46-3.7-.69-.09-.02-.09-.06-.09-.12v-23.45c1.57-.29,3.13-.59,4.7-.88,4.46-.84,8.93-1.69,13.41-2.53v3.05h12.23c.37,0,.71,.07,1,.3,.39,.29,.58,.68,.6,1.16v21.28c0,.52-.2,.94-.62,1.25-.27,.2-.57,.28-.89,.28h-12.32v3.05Z"/>
      <path class="cls-1" d="M17.43,44.44c-.29,1.63-.57,3.26-.85,4.89-.54-1.79-.9-3.56-1.26-5.34-.1-.52-.21-.98-.92-.86-.63,.11-1.39-.22-1.58,.86-.31,1.78-.75,3.53-1.14,5.29-.38-1.52-.63-3.06-.9-4.59-.24-1.4-.25-1.4-1.68-1.22-.12,.02-.23,.06-.35,.09-.02,.12-.07,.21-.06,.3,.55,2.82,1.08,5.65,1.68,8.46,.2,.95,1.1,.43,1.68,.57,.16,.04,.6-.38,.66-.64,.44-1.79,.8-3.59,1.23-5.57,.43,2.05,.86,3.91,1.2,5.78,.17,.89,.83,.69,1.38,.74,.55,.06,1.07,.08,1.22-.67,.23-1.1,.53-2.19,.78-3.29,.48-2.09,.94-4.19,1.41-6.29-1.9-.38-2.2-.2-2.5,1.49Z"/>
      <polygon class="cls-1" points="36.5 37.15 23.94 37.15 23.94 39.57 32.5 39.57 32.5 40.84 23.94 40.84 23.94 42.76 32.5 42.76 32.5 44.03 23.94 44.03 23.94 45.96 32.5 45.96 32.5 47.23 23.94 47.23 23.94 49.15 32.5 49.15 32.5 50.42 23.94 50.42 23.94 52.35 32.5 52.35 32.5 53.62 23.94 53.62 23.94 55.54 32.5 55.54 32.5 56.82 23.94 56.82 23.94 58.95 36.5 58.95 36.5 37.15"/>
    </g>
  </g>
</svg>