<?xml version="1.0" encoding="UTF-8"?>
<svg id="Calque_2" data-name="Calque 2" xmlns="http://www.w3.org/2000/svg" viewBox="0 0 49.58 56">
  <g id="Calque_1-2" data-name="Calque 1">
    <g>
      <path d="M49.54,23.11c-.01-1.74-1.26-2.9-3-3.02-.45-.03-.89-.05-1.46-.08,0-1.98,.06-3.88-.03-5.77-.03-.69-.27-1.49-.71-2-3.25-3.82-6.56-7.6-9.92-11.32-.45-.5-1.33-.87-2.01-.88C24.07-.02,15.74,0,7.4,.01,5.22,.01,4.49,.74,4.49,2.91c-.01,5.23,0,10.46,0,15.68v1.38c-.32,.05-.51,.09-.71,.1C.93,20.22,0,21.18,0,23.98c0,4.86,0,9.71,0,14.56,0,2.99,.89,3.91,3.88,4.06,.16,.01,.32,.05,.61,.1v7.58c0,.91,.06,1.83-.02,2.73-.12,1.35,.39,2.32,1.52,2.99H43.58c1.21-.69,1.56-1.74,1.53-3.11-.08-3.36-.03-6.71-.03-10.23,.48-.02,.92-.05,1.35-.07,1.8-.07,3.1-1.26,3.11-3.05,.05-5.48,.05-10.95,0-16.43ZM6.77,2.29h25.35V12.51c.01,1.86,.12,1.98,1.98,1.98h8.68v5.52H6.77V2.29ZM29.79,22.95v16.25h-3.59V22.95h3.59Zm-17.96,3v-3.03h11.71c.21,1.15,.11,2.13-.62,3.14-2.3,3.23-4.51,6.53-6.91,10.02h7.64v3.13H11.09c-.27-1.15-.07-2.09,.62-3.05,2.15-2.99,4.22-6.04,6.32-9.07,.23-.33,.43-.67,.73-1.14h-6.93Zm30.98,27.21H6.73v-10.47H42.81v10.47Zm-3.21-19.83c-.9,.07-1.81,.01-2.83,.01v5.79h-3.78v-5.84c0-3.06,.03-6.12-.01-9.19-.02-.84,.24-1.2,1.1-1.19,1.98,.01,3.98-.2,5.94,0,3.12,.32,4.87,2.33,4.78,5.12-.09,2.96-2.13,5.05-5.2,5.3Z"/>
      <path d="M39.02,25.64c-.69-.09-1.39-.02-2.31-.02v3.23c.01,1.85,.28,2.07,2.11,1.64,.28-.07,.56-.14,.82-.26,1.12-.52,1.57-1.44,1.43-2.63-.13-1.19-.91-1.83-2.05-1.96Z"/>
    </g>
  </g>
</svg>